# xmcd CD database file
#
# Track frame offsets:
#	150
#	7801
#	19948
#	33911
#	44752
#	57943
#	65728
#	79599
#	90087
#	107328
#	116902
#	131112
#	146355
#	158789
#	171890
#	185499
#
# Disc length: 2650 seconds
#
# Revision: 0
# Processed by: cddbd v1.5.1PL2 Copyright (c) Steve Scherf et al.
# Submitted via: CDex 1.51
#
DISCID=cd0a5810
DTITLE=Flying W Wranglers - Back In The Saddle
DYEAR=2006
DGENRE=Country
TTITLE0=Around the Campfire
TTITLE1=Red River Valley
TTITLE2=Colorado
TTITLE3=Payday
TTITLE4=Tumbling Tumbleweeds
TTITLE5=Sagebrush in Heaven
TTITLE6=Cool Water
TTITLE7=Skyball Paint
TTITLE8=Night Time on The Range
TTITLE9=Whoopi Ti
TTITLE10=Night Riders Lament
TTITLE11=Home on The Range
TTITLE12=Ghost Riders in The Sky
TTITLE13=Leaning on The Old Top Rail
TTITLE14=Where Have All The Cowboys Gone
TTITLE15=Back In The Saddle
EXTD=YEAR: 2006
EXTT0=
EXTT1=
EXTT2=
EXTT3=
EXTT4=
EXTT5=
EXTT6=
EXTT7=
EXTT8=
EXTT9=
EXTT10=
EXTT11=
EXTT12=
EXTT13=
EXTT14=
EXTT15=
PLAYORDER=
